<?xml version="1.0" standalone="no"?>

<!DOCTYPE svg PUBLIC "-//W3C//DTD SVG 20010904//EN"
 "http://www.w3.org/TR/2001/REC-SVG-20010904/DTD/svg10.dtd">
<svg version="1.0" xmlns="http://www.w3.org/2000/svg"
 width="180.000000pt" height="180.000000pt" viewBox="0 0 180.000000 180.000000"
 preserveAspectRatio="xMidYMid meet">
<metadata>
Created by potrace 1.14, written by Peter Selinger 2001-2017
</metadata>
<g transform="translate(0.000000,180.000000) scale(0.100000,-0.100000)"
fill="#000000" stroke="none">
<path d="M0 900 l0 -900 900 0 900 0 0 900 0 900 -900 0 -900 0 0 -900z m129
834 c25 -17 39 -21 52 -14 25 14 72 12 92 -2 17 -14 27 -114 13 -136 -8 -13
-70 -5 -110 15 -15 8 -38 12 -50 9 -28 -7 -97 9 -107 26 -12 18 -11 81 1 113
9 24 14 26 43 19 17 -3 47 -17 66 -30z m820 -115 c29 -28 50 -53 47 -56 -3 -3
-14 0 -23 8 -16 13 -17 12 -5 -2 7 -9 22 -17 35 -17 69 0 204 -78 242 -140 24
-39 45 -45 110 -33 56 11 65 8 58 -17 -6 -25 -60 -88 -68 -80 -4 4 5 19 19 35
14 15 26 35 26 43 -1 12 -3 12 -14 -2 -10 -13 -27 -18 -65 -18 -49 0 -51 -1
-39 -20 7 -11 32 -29 55 -40 46 -22 67 -26 43 -9 -11 8 0 9 40 4 30 -3 57 -8
59 -11 9 -9 -15 -38 -58 -71 l-41 -32 37 -27 c21 -16 42 -31 47 -36 16 -13
-15 -38 -47 -38 l-30 0 7 -47 c3 -26 17 -63 30 -83 28 -43 58 -100 52 -100 -2
0 -19 26 -37 58 -18 31 -34 52 -36 46 -2 -6 15 -43 38 -83 l42 -72 -12 -57
c-7 -31 -24 -83 -38 -115 -32 -71 -24 -87 11 -20 28 54 34 54 11 -1 -13 -30
-13 -36 -1 -36 25 0 28 -59 5 -105 -21 -41 -21 -43 -4 -79 10 -22 14 -41 9
-46 -11 -10 -94 -18 -88 -8 3 5 21 8 40 8 39 0 41 6 17 54 -16 34 -15 37 7 79
32 60 24 74 -41 76 -28 0 -54 3 -57 5 -2 3 3 15 12 28 25 36 19 53 -24 73 -22
10 -38 20 -36 22 4 4 62 -20 84 -35 12 -8 11 -15 -2 -41 -9 -17 -12 -31 -6
-31 23 0 80 154 80 214 0 17 -13 53 -29 80 l-29 49 -7 -54 c-4 -30 -12 -63
-17 -74 -7 -16 -7 -15 -2 5 3 14 8 88 10 165 l4 139 35 -3 c20 -1 35 2 35 8 0
10 -12 15 -35 12 -5 0 -37 24 -70 55 -53 49 -52 65 0 17 12 -10 32 -27 45 -38
19 -15 18 -12 -5 13 -25 28 -27 34 -15 42 8 5 18 10 22 10 14 0 68 52 62 61
-3 5 -17 9 -32 8 -24 0 -25 -1 -7 -9 13 -6 1 -7 -34 -3 -44 5 -53 3 -47 -8 4
-8 1 -6 -7 3 -8 10 -16 15 -19 13 -3 -3 -31 4 -63 15 -79 27 -122 27 -131 -2
-6 -20 -8 -20 -19 -5 -7 9 -16 17 -21 17 -5 0 -15 12 -21 28 -15 31 -100 136
-90 109 4 -9 24 -41 46 -70 22 -28 42 -65 46 -82 6 -29 6 -29 -9 -10 -8 11
-25 30 -37 41 -13 13 -18 27 -14 35 5 7 4 10 -3 5 -6 -3 -16 0 -24 7 -7 8 -18
12 -25 10 -19 -7 -37 104 -35 207 3 101 -1 109 -21 39 -14 -46 -26 -52 -72
-34 -15 5 -13 3 5 -11 33 -23 40 -34 40 -61 0 -40 -19 -25 -52 42 -18 36 -36
65 -40 65 -4 0 -8 -20 -8 -45 0 -39 -3 -45 -25 -51 -13 -3 -38 -1 -55 4 -36
13 -40 1 -5 -18 14 -7 25 -17 25 -22 0 -11 -127 -10 -168 1 -30 9 -32 8 -33
-17 l-1 -27 -10 28 c-13 37 -1 50 38 38 16 -5 51 -12 77 -14 l48 -5 -6 30 -7
29 54 -3 53 -3 3 53 c3 57 10 62 38 31 16 -18 65 -49 77 -49 2 0 9 25 16 55 7
30 16 55 20 55 4 0 31 -23 60 -51z m-722 -151 c16 -13 17 -52 1 -94 -9 -27 -9
-38 2 -59 10 -19 11 -28 2 -37 -15 -15 -103 -11 -120 6 -18 17 -24 175 -9 195
13 15 102 7 124 -11z m466 -34 c28 -5 37 -11 37 -26 0 -11 -5 -16 -10 -13 -6
4 -7 11 -4 17 5 8 1 9 -11 5 -9 -4 -23 -3 -29 2 -6 5 -20 11 -31 14 -30 7 4 8
48 1z m143 -40 c13 -3 24 -10 24 -15 0 -13 -11 -11 -50 12 -19 11 -27 18 -17
15 11 -4 30 -9 43 -12z m-326 -16 c0 -4 -25 -8 -55 -8 -35 0 -55 -4 -55 -12 0
-6 -3 -9 -6 -5 -4 3 -4 13 0 22 4 12 19 15 61 14 30 -1 55 -6 55 -11z m315
-86 c86 -27 165 -78 165 -107 0 -39 -44 -40 -54 -2 -8 27 -79 81 -143 106 -61
25 -46 26 32 3z m-376 -23 c-8 -5 -30 -8 -49 -8 -31 1 -32 2 -10 8 36 11 76
11 59 0z m791 -43 c0 -7 -110 -59 -115 -54 -9 9 69 58 92 58 13 0 23 -2 23 -4z
m-90 -10 c0 -2 -7 -6 -15 -10 -8 -3 -15 -1 -15 4 0 6 7 10 15 10 8 0 15 -2 15
-4z m33 -66 c9 -11 13 -20 8 -20 -4 0 -16 9 -26 20 -10 11 -14 20 -9 20 5 0
17 -9 27 -20z m-723 7 c0 -2 -15 -16 -32 -33 l-33 -29 29 33 c28 30 36 37 36
29z m710 -37 c8 -5 11 -10 5 -10 -5 0 -17 5 -25 10 -8 5 -10 10 -5 10 6 0 17
-5 25 -10z m109 -85 c0 -11 -6 -29 -14 -39 -14 -18 -15 -14 -15 45 1 60 1 63
15 39 8 -14 14 -34 14 -45z m-119 40 c30 -15 41 -39 45 -99 1 -17 6 -39 10
-49 4 -9 2 -37 -4 -62 -14 -54 -14 -58 -1 -50 20 12 11 -91 -10 -118 -25 -31
-104 -62 -185 -71 l-60 -7 34 21 c42 27 36 33 -20 21 -24 -5 -62 -6 -84 -1
-39 7 -38 8 20 9 33 1 77 6 99 12 42 12 96 63 96 91 0 10 5 15 13 12 7 -2 13
3 14 14 2 25 -27 22 -56 -5 -28 -26 -62 -33 -162 -33 -87 0 -154 22 -162 52
-3 10 -2 18 2 18 20 0 5 33 -18 41 -24 8 -26 13 -23 59 5 66 19 77 85 63 38
-8 54 -8 59 1 13 21 -12 30 -82 30 -49 1 -66 4 -57 11 8 6 12 15 10 20 -5 15
85 7 124 -11 35 -16 74 -18 89 -5 50 48 166 66 224 36z m170 -11 c0 -8 -4 -14
-10 -14 -5 0 -10 9 -10 21 0 11 5 17 10 14 6 -3 10 -13 10 -21z m-820 6 c0 -5
-4 -10 -10 -10 -5 0 -10 5 -10 10 0 6 5 10 10 10 6 0 10 -4 10 -10z m57 -47
c-3 -10 -5 -4 -5 12 0 17 2 24 5 18 2 -7 2 -21 0 -30z m789 -98 c-4 -66 -12
-106 -30 -148 -23 -51 -46 -75 -46 -47 0 6 5 10 10 10 6 0 10 5 10 11 0 5 -4
8 -9 5 -4 -3 -5 11 -1 32 3 20 7 82 9 137 3 104 10 122 44 102 17 -11 19 -20
13 -102z m-919 28 c-2 -16 -4 -5 -4 22 0 28 2 40 4 28 2 -13 2 -35 0 -50z m72
-87 c-1 -19 -3 -24 -6 -12 -4 15 -7 16 -14 5 -6 -9 -9 5 -9 41 0 55 0 55 15
26 8 -15 14 -42 14 -60z m-140 55 c12 -8 12 -12 2 -25 -17 -20 -37 -20 -45 0
-11 30 13 44 43 25z m25 -31 c-10 -16 -20 -27 -22 -25 -5 5 26 55 34 55 3 0
-3 -13 -12 -30z m883 -7 c-3 -10 -5 -4 -5 12 0 17 2 24 5 18 2 -7 2 -21 0 -30z
m-878 -51 c-6 -18 -16 -32 -21 -32 -7 0 -9 -19 -6 -49 3 -28 1 -56 -3 -63 -6
-9 -8 -5 -7 12 1 14 -2 39 -6 57 -6 25 -3 36 13 52 12 12 22 24 22 29 3 16 12
33 15 29 2 -2 -1 -18 -7 -35z m48 -14 c-3 -7 -5 -2 -5 12 0 14 2 19 5 13 2 -7
2 -19 0 -25z m1041 -54 l-3 -39 -5 47 c-3 26 -1 43 3 39 5 -5 7 -26 5 -47z
m-760 -9 c-3 -3 -9 2 -12 12 -6 14 -5 15 5 6 7 -7 10 -15 7 -18z m322 -5 c0
-5 -8 -10 -17 -11 -15 0 -15 -2 2 -8 18 -7 17 -9 -12 -24 -40 -21 -174 -22
-218 -2 l-30 13 30 2 30 1 -30 13 c-27 12 -20 13 65 9 52 -3 111 -1 130 5 46
14 50 14 50 2z m-388 -76 c11 -3 17 -8 15 -11 -7 -6 -50 16 -59 31 -4 6 -8 20
-8 31 0 15 4 12 16 -12 9 -18 25 -35 36 -39z m98 41 c13 -14 19 -25 14 -25 -8
1 -50 50 -41 50 2 0 14 -11 27 -25z m717 -32 c-3 -10 -5 -4 -5 12 0 17 2 24 5
18 2 -7 2 -21 0 -30z m-1090 -9 c-3 -4 0 -22 9 -42 8 -19 12 -37 10 -40 -3 -2
-12 13 -20 33 -15 34 -14 55 1 55 4 0 4 -3 0 -6z m813 -33 c0 -5 3 -16 6 -24
3 -10 -5 -18 -25 -25 -33 -12 -41 -3 -16 18 8 7 15 19 15 26 0 8 5 14 10 14 6
0 10 -4 10 -9z m-110 -71 c-6 -12 -14 -20 -17 -17 -2 3 1 14 8 26 17 26 24 19
9 -9z m-570 11 c0 -5 15 -12 34 -15 19 -4 45 -15 58 -25 13 -11 33 -21 43 -24
11 -2 4 -2 -15 0 -71 10 -85 10 -92 -1 -4 -6 -11 1 -17 16 -5 14 -15 29 -20
33 -14 8 -14 25 -1 25 6 0 10 -4 10 -9z m800 4 c0 -3 -10 -21 -22 -40 l-23
-35 -80 1 c-63 0 -75 2 -55 10 31 13 110 49 130 60 17 9 50 12 50 4z m-861
-41 c6 4 11 2 11 -3 0 -6 -21 -11 -50 -11 -36 0 -52 -5 -59 -17 -9 -16 -10
-16 -11 5 0 22 12 27 53 22 15 -1 18 3 12 22 l-6 23 19 -24 c11 -13 24 -21 31
-17z m665 2 c-10 -8 -21 -12 -24 -10 -5 6 21 24 34 24 6 0 1 -6 -10 -14z m291
-56 c-3 -5 -26 -10 -50 -10 -24 0 -47 5 -50 10 -4 6 15 10 50 10 35 0 54 -4
50 -10z m-411 -25 c4 -12 10 -14 25 -5 44 23 87 2 97 -47 5 -25 2 -31 -14 -35
-17 -5 -21 -1 -24 21 -2 19 -10 27 -27 29 -21 3 -23 1 -19 -26 4 -27 2 -29
-16 -22 -15 5 -20 16 -19 34 1 20 -3 26 -18 26 -16 0 -19 -7 -20 -52 0 -29 -3
-46 -6 -38 -3 8 -12 19 -19 23 -8 4 -14 21 -14 36 0 20 -6 30 -20 34 -36 9
-21 26 28 30 26 2 50 4 53 5 4 1 10 -5 13 -13z m208 -9 c4 -5 2 -19 -4 -30 -8
-15 -8 -21 1 -24 18 -6 12 -30 -10 -37 -11 -4 -23 -4 -26 -1 -4 3 -1 6 5 6 7
0 12 5 12 11 0 7 -10 5 -25 -5 -24 -16 -25 -16 -25 8 0 13 -3 37 -6 54 -5 26
-3 31 17 34 28 5 51 -2 61 -16z m58 14 c0 -5 -7 -10 -15 -10 -8 0 -15 5 -15
10 0 6 7 10 15 10 8 0 15 -4 15 -10z m-661 -17 c25 -22 33 -67 11 -68 -8 0
-17 9 -20 20 -8 26 -38 32 -47 8 -4 -10 -13 -24 -20 -31 -11 -11 -13 -6 -13
32 0 41 2 45 28 49 15 2 30 5 33 6 4 0 16 -7 28 -16z m121 3 c0 -8 -9 -16 -20
-18 -29 -4 -30 -22 -2 -26 37 -6 25 -22 -17 -22 -35 0 -39 3 -45 31 -8 42 -2
49 45 49 27 0 39 -4 39 -14z m55 -23 c13 -30 18 -35 25 -23 5 8 10 25 10 38 0
16 6 22 21 22 18 0 20 -4 14 -27 -11 -47 -43 -113 -54 -113 -6 0 -11 5 -11 11
0 6 -11 33 -25 61 -29 58 -31 68 -10 68 8 0 22 -17 30 -37z m-340 7 c3 -5 1
-10 -4 -10 -6 0 -11 5 -11 10 0 6 2 10 4 10 3 0 8 -4 11 -10z m950 0 c-3 -5
-13 -10 -21 -10 -19 0 -18 -7 6 -37 23 -30 25 -43 7 -43 -24 0 -54 34 -61 68
l-8 32 42 0 c25 0 39 -4 35 -10z m-125 -35 c0 -24 -5 -35 -15 -35 -10 0 -15
11 -15 35 0 24 5 35 15 35 10 0 15 -11 15 -35z m-890 -15 c-16 -40 -23 -33 -9
9 6 18 14 30 17 27 2 -3 -1 -19 -8 -36z m50 -20 c0 -5 -5 -10 -11 -10 -5 0 -7
5 -4 10 3 6 8 10 11 10 2 0 4 -4 4 -10z m853 -121 c-6 -6 -28 -9 -49 -6 l-39
4 43 1 c24 1 42 7 42 14 0 6 3 8 7 5 4 -4 2 -12 -4 -18z m-625 -6 c-10 -2 -26
-2 -35 0 -10 3 -2 5 17 5 19 0 27 -2 18 -5z m312 -18 c0 -2 -14 -12 -31 -21
-27 -13 -36 -14 -58 -3 -26 13 -26 13 19 20 67 9 70 9 70 4z m40 -25 c-8 -5
-19 -10 -25 -10 -5 0 -3 5 5 10 8 5 20 10 25 10 6 0 3 -5 -5 -10z m-820 -40
c0 -5 -4 -10 -10 -10 -5 0 -10 5 -10 10 0 6 5 10 10 10 6 0 10 -4 10 -10z
m-32 -22 c-3 -7 -11 -13 -18 -13 -7 0 -15 6 -17 13 -3 7 4 12 17 12 13 0 20
-5 18 -12z"/>
<path d="M1006 1512 c4 -15 15 -36 26 -47 l21 -20 -6 23 c-5 22 -4 23 16 9 37
-23 59 -76 54 -129 -3 -41 -1 -48 14 -48 10 0 20 4 24 9 3 6 26 13 50 17 25 3
42 10 39 16 -3 5 -14 6 -24 3 -31 -10 -80 -14 -81 -7 -1 4 -2 21 -4 39 -1 18
-6 49 -10 69 l-7 37 29 -17 c15 -10 48 -39 72 -64 38 -41 41 -43 27 -16 -26
53 -95 101 -192 134 l-54 19 6 -27z"/>
<path d="M910 1491 c0 -6 4 -13 10 -16 6 -3 7 1 4 9 -7 18 -14 21 -14 7z"/>
<path d="M1293 1353 c9 -2 25 -2 35 0 9 3 1 5 -18 5 -19 0 -27 -2 -17 -5z"/>
<path d="M1011 1018 c-66 -15 -37 -30 43 -22 66 7 76 18 26 27 -14 3 -45 1
-69 -5z"/>
<path d="M750 982 c-19 -6 -30 -22 -29 -42 0 -10 2 -11 6 -2 9 22 22 13 25
-19 4 -41 28 -57 62 -41 20 9 26 19 26 42 0 24 4 30 22 30 12 0 19 3 15 6 -10
11 -111 31 -127 26z"/>
<path d="M978 968 c-32 -11 -38 -29 -8 -21 17 4 20 0 20 -25 0 -36 28 -57 61
-47 17 6 20 14 17 46 -2 28 0 39 10 39 7 0 10 5 7 10 -8 13 -71 12 -107 -2z
m52 -12 c0 -3 -4 -8 -10 -11 -5 -3 -10 -1 -10 4 0 6 5 11 10 11 6 0 10 -2 10
-4z"/>
<path d="M841 835 c-12 -15 -20 -33 -17 -41 7 -17 57 -18 106 -1 27 9 35 17
35 37 0 23 -4 25 -50 28 -44 3 -54 -1 -74 -23z m116 -2 c6 -18 -44 -28 -62
-13 -8 7 -15 17 -15 22 0 14 73 5 77 -9z"/>
<path d="M1098 853 c7 -3 16 -2 19 1 4 3 -2 6 -13 5 -11 0 -14 -3 -6 -6z"/>
<path d="M1103 833 c9 -2 23 -2 30 0 6 3 -1 5 -18 5 -16 0 -22 -2 -12 -5z"/>
<path d="M1166 435 c4 -8 8 -15 10 -15 2 0 4 7 4 15 0 8 -4 15 -10 15 -5 0 -7
-7 -4 -15z"/>
<path d="M1341 414 c0 -11 3 -14 6 -6 3 7 2 16 -1 19 -3 4 -6 -2 -5 -13z"/>
</g>
</svg>
